# xmcd
# 
# Track frame offsets:
#     150
#     16629
#     34398
#     64386
# 
# Disc length: 1715
# 
# Revision: 0
# Processed by: cddbd v1.5.2PL0 Copyright (c) Steve Scherf et al.
# Submitted via: fre:ac v1.0.17
# 
DISCID=2d06b104
DTITLE=Complete Idiot - Idiots Italian 03
DYEAR=0
DGENRE=
TTITLE0=03 01
TTITLE1=03 02
TTITLE2=03 03
TTITLE3=03 04
EXTD=
EXTT0=
EXTT1=
EXTT2=
EXTT3=
PLAYORDER=
